<?xml version="1.0" encoding="UTF-8"?>
<svg width="39px" height="39px" viewBox="0 0 39 39" version="1.1" xmlns="http://www.w3.org/2000/svg" xmlns:xlink="http://www.w3.org/1999/xlink">
    <!-- Generator: Sketch 44.1 (41455) - http://www.bohemiancoding.com/sketch -->
    <title>Group 3</title>
    <desc>Created with Sketch.</desc>
    <defs></defs>
    <g id="Page-1" stroke="none" stroke-width="1" fill="none" fill-rule="evenodd">
        <g id="HC-TechBlog-02">
            <g id="Group-3">
                <g id="Logo">
                    <path d="M25.402975,0 C29.31825,0 31.2754,0 33.383025,0.66625 C35.684025,1.503775 37.496225,3.315975 38.33375,5.616975 C39,7.724275 39,9.682075 39,13.597025 L39,25.402975 C39,29.31825 39,31.2754 38.33375,33.383025 C37.496225,35.684025 35.684025,37.496225 33.383025,38.333425 C31.2754,39 29.31825,39 25.402975,39 L13.597025,39 C9.68175,39 7.724275,39 5.616975,38.333425 C3.315975,37.496225 1.503775,35.684025 0.66625,33.383025 C0,31.2754 0,29.31825 0,25.402975 L0,13.597025 C0,9.682075 0,7.724275 0.66625,5.616975 C1.503775,3.315975 3.315975,1.503775 5.616975,0.66625 C7.724275,0 9.68175,0 13.597025,0 L25.402975,0 Z" id="Icon-Shape" fill="#FAD73C"></path>
                    <g id="Labs-Logo" transform="translate(9.000000, 5.000000)">
                        <path d="M12.1161972,0.822916667 L8.88380282,0.822916667 L8.88380282,7.66953298 L2.22619026,15.3287322 C-0.311796897,18.2485401 0.601775037,20.25 4.47754972,20.25 L16.5224503,20.25 C20.3982312,20.25 21.3141529,18.2511342 18.7739932,15.3287222 L12.1161972,7.66903702 L12.1161972,0.822916667 Z" id="Container" stroke="#043967" stroke-width="1.5"></path>
                        <path d="M9.99607708,12.556691 C9.93992256,12.4418669 9.9084507,12.3130994 9.9084507,12.1770833 C9.9084507,11.6938342 10.3057192,11.3020833 10.7957746,11.3020833 C11.1905907,11.3020833 11.5251804,11.5563615 11.6403195,11.9079049 C12.454224,11.8204152 13.1707251,12.1230341 13.3508181,12.3229167 L17.3413176,17.0729491 C17.8101097,17.6309689 17.5942899,18.0833333 16.8588381,18.0833333 L4.14116191,18.0833333 C3.4059037,18.0833333 3.19004776,17.6307814 3.65868239,17.0729491 L7.64918186,12.3229167 C7.8753451,12.0719015 8.94746025,12.8470269 9.99607708,12.556691 Z M9.46478873,15.1666667 C9.8731683,15.1666667 10.2042254,14.8402076 10.2042254,14.4375 C10.2042254,14.0347924 9.8731683,13.7083333 9.46478873,13.7083333 C9.05640916,13.7083333 8.72535211,14.0347924 8.72535211,14.4375 C8.72535211,14.8402076 9.05640916,15.1666667 9.46478873,15.1666667 Z M11.0915493,16.4791667 C11.418253,16.4791667 11.6830986,16.2179994 11.6830986,15.8958333 C11.6830986,15.5736672 11.418253,15.3125 11.0915493,15.3125 C10.7648456,15.3125 10.5,15.5736672 10.5,15.8958333 C10.5,16.2179994 10.7648456,16.4791667 11.0915493,16.4791667 Z M9.99607708,12.556691 C10.139433,12.8498234 10.443651,13.0520833 10.7957746,13.0520833 C11.2858301,13.0520833 11.6830986,12.6603325 11.6830986,12.1770833 C11.6830986,12.0831667 11.6680939,11.9927059 11.6403195,11.9079049 C11.2665825,11.9480793 10.8723074,12.0705103 10.5,12.3229167 C10.335104,12.4347082 10.1658987,12.5096716 9.99607708,12.556691 Z" id="Fluid" fill="#043967"></path>
                    </g>
                    <path d="M9,34.1075887 L9,29.0723259 L10.0976378,29.0723259 L10.0976378,33.2259011 L12.1973126,33.2259011 L12.1973126,34.1075887 L9,34.1075887 Z M17.9231377,34.1075887 L17.5478164,32.9090447 L15.6605876,32.9090447 L15.2852663,34.1075887 L14.1026501,34.1075887 L15.9296859,29.0516614 L17.2716366,29.0516614 L19.1057539,34.1075887 L17.9231377,34.1075887 Z M17.2857997,32.0135807 C16.9388028,30.9275382 16.7434724,30.3133479 16.6998027,30.1709914 C16.656133,30.0286348 16.6248566,29.9161289 16.6059724,29.8334703 C16.5280751,30.1273677 16.305009,30.8540638 15.9367674,32.0135807 L17.2857997,32.0135807 Z M21.4147389,29.0723259 L23.0257878,29.0723259 C23.7599105,29.0723259 24.2927906,29.1739256 24.6244441,29.3771281 C24.9560976,29.5803306 25.1219219,29.903498 25.1219219,30.3466401 C25.1219219,30.6474256 25.0493369,30.8942497 24.9041647,31.0871199 C24.7589926,31.27999 24.5660227,31.39594 24.3252493,31.4349732 L24.3252493,31.4694141 C24.653362,31.5405924 24.8900009,31.6737626 25.0351731,31.8689288 C25.1803453,32.064095 25.2529303,32.3235474 25.2529303,32.6472936 C25.2529303,33.1065082 25.082385,33.4646902 24.7412894,33.7218504 C24.4001939,33.9790106 23.9369481,34.1075887 23.3515384,34.1075887 L21.4147389,34.1075887 L21.4147389,29.0723259 Z M22.5123766,31.0664553 L23.1497147,31.0664553 C23.4471406,31.0664553 23.6625351,31.0216826 23.7959047,30.9321357 C23.9292742,30.8425889 23.995958,30.6944944 23.995958,30.4878478 C23.995958,30.2949777 23.923373,30.1566414 23.7782008,30.0728347 C23.6330287,29.9890281 23.4034712,29.9471254 23.0895216,29.9471254 L22.5123766,29.9471254 L22.5123766,31.0664553 Z M22.5123766,31.913702 L22.5123766,33.2259011 L23.2276116,33.2259011 C23.5297585,33.2259011 23.7528246,33.1696482 23.8968165,33.0571406 C24.0408084,32.944633 24.1128033,32.7724302 24.1128033,32.5405268 C24.1128033,32.1226415 23.8059399,31.913702 23.1922039,31.913702 L22.5123766,31.913702 Z M31,32.7092873 C31,33.1639098 30.8318153,33.5220918 30.4954407,33.7838441 C30.1590662,34.0455964 29.6910995,34.1764706 29.0915266,34.1764706 C28.5391642,34.1764706 28.0505432,34.0754449 27.6256491,33.8733905 L27.6256491,32.8814919 C27.9750065,33.0330327 28.2706576,33.1397985 28.5126112,33.2017925 C28.7545648,33.2637865 28.9758605,33.294783 29.176505,33.294783 C29.4172784,33.294783 29.6019865,33.2500102 29.730635,33.1604634 C29.8592835,33.0709165 29.9236068,32.9377463 29.9236068,32.7609487 C29.9236068,32.6622176 29.895281,32.5743941 29.8386284,32.4974756 C29.7819759,32.4205572 29.6987687,32.34651 29.5890044,32.2753317 C29.47924,32.2041534 29.2555838,32.0904995 28.918029,31.9343666 C28.6017189,31.789714 28.3644899,31.6508036 28.2063349,31.5176314 C28.0481798,31.3844592 27.9218937,31.2294766 27.8274728,31.052679 C27.7330519,30.8758813 27.6858421,30.6692379 27.6858421,30.4327424 C27.6858421,29.9873042 27.8410442,29.6371583 28.151453,29.3822942 C28.4618618,29.1274301 28.8908804,29 29.4385218,29 C29.7076214,29 29.9643244,29.0309965 30.2086386,29.0929905 C30.4529527,29.1549845 30.7084755,29.2422339 30.9752146,29.3547415 L30.6211379,30.1847677 C30.3449567,30.0745562 30.1165795,29.9976389 29.9359995,29.9540135 C29.7554195,29.9103882 29.5777928,29.8885758 29.4031141,29.8885758 C29.1953881,29.8885758 29.0360551,29.9356446 28.9251106,30.0297836 C28.814166,30.1239226 28.7586945,30.2467606 28.7586945,30.3983014 C28.7586945,30.4924404 28.7811191,30.5745238 28.8259691,30.644554 C28.870819,30.7145843 28.9422238,30.7823174 29.0401855,30.8477555 C29.1381472,30.9131935 29.3700651,31.0308655 29.7359462,31.2007749 C30.2198534,31.4257901 30.551502,31.6513759 30.7309017,31.877539 C30.9103015,32.1037022 31,32.3809489 31,32.7092873 L31,32.7092873 Z" id="LABS" fill="#043967"></path>
                </g>
            </g>
        </g>
    </g>
</svg>