<?xml version="1.0" encoding="UTF-8"?>
<svg width="174px" height="39px" viewBox="0 0 174 39" version="1.1" xmlns="http://www.w3.org/2000/svg" xmlns:xlink="http://www.w3.org/1999/xlink">
    <!-- Generator: Sketch 44.1 (41455) - http://www.bohemiancoding.com/sketch -->
    <title>Group 3</title>
    <desc>Created with Sketch.</desc>
    <defs></defs>
    <g id="Page-1" stroke="none" stroke-width="1" fill="none" fill-rule="evenodd">
        <g id="HC-TechBlog-02" transform="translate(-74.000000, -40.000000)">
            <g id="Group-3" transform="translate(74.000000, 40.000000)">
                <g id="Logo" transform="translate(135.000000, 0.000000)">
                    <path d="M25.402975,0 C29.31825,0 31.2754,0 33.383025,0.66625 C35.684025,1.503775 37.496225,3.315975 38.33375,5.616975 C39,7.724275 39,9.682075 39,13.597025 L39,25.402975 C39,29.31825 39,31.2754 38.33375,33.383025 C37.496225,35.684025 35.684025,37.496225 33.383025,38.333425 C31.2754,39 29.31825,39 25.402975,39 L13.597025,39 C9.68175,39 7.724275,39 5.616975,38.333425 C3.315975,37.496225 1.503775,35.684025 0.66625,33.383025 C0,31.2754 0,29.31825 0,25.402975 L0,13.597025 C0,9.682075 0,7.724275 0.66625,5.616975 C1.503775,3.315975 3.315975,1.503775 5.616975,0.66625 C7.724275,0 9.68175,0 13.597025,0 L25.402975,0 Z" id="Icon-Shape" fill="#FAD73C"></path>
                    <g id="Labs-Logo" transform="translate(9.000000, 5.000000)">
                        <path d="M12.1161972,0.822916667 L8.88380282,0.822916667 L8.88380282,7.66953298 L2.22619026,15.3287322 C-0.311796897,18.2485401 0.601775037,20.25 4.47754972,20.25 L16.5224503,20.25 C20.3982312,20.25 21.3141529,18.2511342 18.7739932,15.3287222 L12.1161972,7.66903702 L12.1161972,0.822916667 Z" id="Container" stroke="#043967" stroke-width="1.5"></path>
                        <path d="M9.99607708,12.556691 C9.93992256,12.4418669 9.9084507,12.3130994 9.9084507,12.1770833 C9.9084507,11.6938342 10.3057192,11.3020833 10.7957746,11.3020833 C11.1905907,11.3020833 11.5251804,11.5563615 11.6403195,11.9079049 C12.454224,11.8204152 13.1707251,12.1230341 13.3508181,12.3229167 L17.3413176,17.0729491 C17.8101097,17.6309689 17.5942899,18.0833333 16.8588381,18.0833333 L4.14116191,18.0833333 C3.4059037,18.0833333 3.19004776,17.6307814 3.65868239,17.0729491 L7.64918186,12.3229167 C7.8753451,12.0719015 8.94746025,12.8470269 9.99607708,12.556691 Z M9.46478873,15.1666667 C9.8731683,15.1666667 10.2042254,14.8402076 10.2042254,14.4375 C10.2042254,14.0347924 9.8731683,13.7083333 9.46478873,13.7083333 C9.05640916,13.7083333 8.72535211,14.0347924 8.72535211,14.4375 C8.72535211,14.8402076 9.05640916,15.1666667 9.46478873,15.1666667 Z M11.0915493,16.4791667 C11.418253,16.4791667 11.6830986,16.2179994 11.6830986,15.8958333 C11.6830986,15.5736672 11.418253,15.3125 11.0915493,15.3125 C10.7648456,15.3125 10.5,15.5736672 10.5,15.8958333 C10.5,16.2179994 10.7648456,16.4791667 11.0915493,16.4791667 Z M9.99607708,12.556691 C10.139433,12.8498234 10.443651,13.0520833 10.7957746,13.0520833 C11.2858301,13.0520833 11.6830986,12.6603325 11.6830986,12.1770833 C11.6830986,12.0831667 11.6680939,11.9927059 11.6403195,11.9079049 C11.2665825,11.9480793 10.8723074,12.0705103 10.5,12.3229167 C10.335104,12.4347082 10.1658987,12.5096716 9.99607708,12.556691 Z" id="Fluid" fill="#043967"></path>
                    </g>
                    <path d="M9,34.1075887 L9,29.0723259 L10.0976378,29.0723259 L10.0976378,33.2259011 L12.1973126,33.2259011 L12.1973126,34.1075887 L9,34.1075887 Z M17.9231377,34.1075887 L17.5478164,32.9090447 L15.6605876,32.9090447 L15.2852663,34.1075887 L14.1026501,34.1075887 L15.9296859,29.0516614 L17.2716366,29.0516614 L19.1057539,34.1075887 L17.9231377,34.1075887 Z M17.2857997,32.0135807 C16.9388028,30.9275382 16.7434724,30.3133479 16.6998027,30.1709914 C16.656133,30.0286348 16.6248566,29.9161289 16.6059724,29.8334703 C16.5280751,30.1273677 16.305009,30.8540638 15.9367674,32.0135807 L17.2857997,32.0135807 Z M21.4147389,29.0723259 L23.0257878,29.0723259 C23.7599105,29.0723259 24.2927906,29.1739256 24.6244441,29.3771281 C24.9560976,29.5803306 25.1219219,29.903498 25.1219219,30.3466401 C25.1219219,30.6474256 25.0493369,30.8942497 24.9041647,31.0871199 C24.7589926,31.27999 24.5660227,31.39594 24.3252493,31.4349732 L24.3252493,31.4694141 C24.653362,31.5405924 24.8900009,31.6737626 25.0351731,31.8689288 C25.1803453,32.064095 25.2529303,32.3235474 25.2529303,32.6472936 C25.2529303,33.1065082 25.082385,33.4646902 24.7412894,33.7218504 C24.4001939,33.9790106 23.9369481,34.1075887 23.3515384,34.1075887 L21.4147389,34.1075887 L21.4147389,29.0723259 Z M22.5123766,31.0664553 L23.1497147,31.0664553 C23.4471406,31.0664553 23.6625351,31.0216826 23.7959047,30.9321357 C23.9292742,30.8425889 23.995958,30.6944944 23.995958,30.4878478 C23.995958,30.2949777 23.923373,30.1566414 23.7782008,30.0728347 C23.6330287,29.9890281 23.4034712,29.9471254 23.0895216,29.9471254 L22.5123766,29.9471254 L22.5123766,31.0664553 Z M22.5123766,31.913702 L22.5123766,33.2259011 L23.2276116,33.2259011 C23.5297585,33.2259011 23.7528246,33.1696482 23.8968165,33.0571406 C24.0408084,32.944633 24.1128033,32.7724302 24.1128033,32.5405268 C24.1128033,32.1226415 23.8059399,31.913702 23.1922039,31.913702 L22.5123766,31.913702 Z M31,32.7092873 C31,33.1639098 30.8318153,33.5220918 30.4954407,33.7838441 C30.1590662,34.0455964 29.6910995,34.1764706 29.0915266,34.1764706 C28.5391642,34.1764706 28.0505432,34.0754449 27.6256491,33.8733905 L27.6256491,32.8814919 C27.9750065,33.0330327 28.2706576,33.1397985 28.5126112,33.2017925 C28.7545648,33.2637865 28.9758605,33.294783 29.176505,33.294783 C29.4172784,33.294783 29.6019865,33.2500102 29.730635,33.1604634 C29.8592835,33.0709165 29.9236068,32.9377463 29.9236068,32.7609487 C29.9236068,32.6622176 29.895281,32.5743941 29.8386284,32.4974756 C29.7819759,32.4205572 29.6987687,32.34651 29.5890044,32.2753317 C29.47924,32.2041534 29.2555838,32.0904995 28.918029,31.9343666 C28.6017189,31.789714 28.3644899,31.6508036 28.2063349,31.5176314 C28.0481798,31.3844592 27.9218937,31.2294766 27.8274728,31.052679 C27.7330519,30.8758813 27.6858421,30.6692379 27.6858421,30.4327424 C27.6858421,29.9873042 27.8410442,29.6371583 28.151453,29.3822942 C28.4618618,29.1274301 28.8908804,29 29.4385218,29 C29.7076214,29 29.9643244,29.0309965 30.2086386,29.0929905 C30.4529527,29.1549845 30.7084755,29.2422339 30.9752146,29.3547415 L30.6211379,30.1847677 C30.3449567,30.0745562 30.1165795,29.9976389 29.9359995,29.9540135 C29.7554195,29.9103882 29.5777928,29.8885758 29.4031141,29.8885758 C29.1953881,29.8885758 29.0360551,29.9356446 28.9251106,30.0297836 C28.814166,30.1239226 28.7586945,30.2467606 28.7586945,30.3983014 C28.7586945,30.4924404 28.7811191,30.5745238 28.8259691,30.644554 C28.870819,30.7145843 28.9422238,30.7823174 29.0401855,30.8477555 C29.1381472,30.9131935 29.3700651,31.0308655 29.7359462,31.2007749 C30.2198534,31.4257901 30.551502,31.6513759 30.7309017,31.877539 C30.9103015,32.1037022 31,32.3809489 31,32.7092873 L31,32.7092873 Z" id="LABS" fill="#043967"></path>
                </g>
                <g id="HC-logo" transform="translate(0.000000, 7.000000)">
                    <path d="M118.633317,22.2982783 C118.633317,23.6194728 117.563058,24.6876726 116.239317,24.6876726 C114.915576,24.6876726 113.845317,23.6194728 113.845317,22.2982783 C113.845317,20.9770838 114.915576,19.908884 116.239317,19.908884 C117.563058,19.908884 118.633317,20.9770838 118.633317,22.2982783" id="Shape" fill="#FAD73C"></path>
                    <path d="M109.085481,22.2982783 C109.085481,23.6194728 108.015222,24.6876726 106.69148,24.6876726 C105.367739,24.6876726 104.29748,23.6194728 104.29748,22.2982783 C104.29748,20.9770838 105.367739,19.908884 106.69148,19.908884 C108.015222,19.908884 109.085481,20.9770838 109.085481,22.2982783" id="Shape" fill="#FAD73C"></path>
                    <path d="M99.5094794,22.2982783 C99.5094794,23.6194728 98.4392205,24.6876726 97.1154791,24.6876726 C95.7917378,24.6876726 94.7214788,23.6194728 94.7214788,22.2982783 C94.7214788,20.9770838 95.7917378,19.908884 97.1154791,19.908884 C98.4392205,19.908884 99.5094794,20.9770838 99.5094794,22.2982783" id="Shape" fill="#FAD73C"></path>
                    <path d="M89.9334782,22.2982783 C89.9334782,23.6194728 88.8632193,24.6876726 87.5394779,24.6876726 C86.2157366,24.6876726 85.1454776,23.6194728 85.1454776,22.2982783 C85.1454776,20.9770838 86.2157366,19.908884 87.5394779,19.908884 C88.8632193,19.908884 89.9334782,20.9770838 89.9334782,22.2982783" id="Shape" fill="#FAD73C"></path>
                    <path d="M80.357477,22.2982783 C80.357477,23.6194728 79.287218,24.6876726 77.9634767,24.6876726 C76.6397353,24.6876726 75.5694764,23.6194728 75.5694764,22.2982783 C75.5694764,20.9770838 76.6397353,19.908884 77.9634767,19.908884 C79.287218,19.908884 80.357477,20.9770838 80.357477,22.2982783" id="Shape" fill="#FAD73C"></path>
                    <path d="M70.753311,22.2982783 C70.753311,23.6194728 69.6830521,24.6876726 68.3593107,24.6876726 C67.0355694,24.6876726 65.9653104,23.6194728 65.9653104,22.2982783 C65.9653104,20.9770838 67.0355694,19.908884 68.3593107,19.908884 C69.6830521,19.908884 70.753311,20.9770838 70.753311,22.2982783" id="Shape" fill="#FAD73C"></path>
                    <path d="M15.296998,10.0702016 C15.296998,8.13057568 16.4799158,6.27528129 18.5077749,6.27528129 C20.5074693,6.27528129 21.6903871,8.1586862 21.6903871,10.0702016 C21.6903871,11.8973855 20.7046222,13.865122 18.5077749,13.865122 C16.2827628,13.865122 15.296998,11.869275 15.296998,10.0702016 M13.2973036,10.0702016 C13.2973036,12.9655853 15.4378215,15.3830901 18.5077749,15.3830901 C21.5777282,15.3830901 23.7182461,12.9655853 23.7182461,10.0702016 C23.7182461,6.97804431 21.6340576,4.75731315 18.5077749,4.75731315 C15.3814921,4.72920263 13.2973036,6.97804431 13.2973036,10.0702016 M13.2973036,10.0702016 C13.2973036,12.9655853 15.4378215,15.3830901 18.5077749,15.3830901 C21.5777282,15.3830901 23.7182461,12.9655853 23.7182461,10.0702016 C23.7182461,6.97804431 21.6340576,4.75731315 18.5077749,4.75731315 C15.3814921,4.72920263 13.2973036,6.97804431 13.2973036,10.0702016 M15.296998,10.0702016 C15.296998,8.13057568 16.4799158,6.27528129 18.5077749,6.27528129 C20.5074693,6.27528129 21.6903871,8.1586862 21.6903871,10.0702016 C21.6903871,11.8973855 20.7046222,13.865122 18.5077749,13.865122 C16.2827628,13.865122 15.296998,11.869275 15.296998,10.0702016" id="Shape" fill="#FFFFFF"></path>
                    <path d="M58.5016624,14.4554429 L55.1218973,5.26330253 C55.1218973,5.23519201 55.0937325,5.20708149 55.0937325,5.17897097 C55.0937325,5.06652888 55.1782267,4.98219732 55.3190502,4.98219732 L56.7554504,4.98219732 L56.7836151,4.98219732 C56.9526034,4.98219732 57.1215916,5.0946394 57.177921,5.26330253 L59.8535685,13.3872431 L59.8817332,13.3872431 L62.5855453,5.29141305 L62.5855453,5.26330253 C62.6418747,5.12274992 62.7826982,5.01030784 62.9516865,5.01030784 L64.2754278,5.01030784 C64.3880867,5.01030784 64.5007455,5.0946394 64.5007455,5.20708149 L64.5007455,5.26330253 L61.0083215,14.8489902 L58.7551448,21.3425206 C58.7551448,21.3706311 58.7269801,21.3987416 58.7269801,21.4268521 C58.6424859,21.5111837 58.5298271,21.5392942 58.4171683,21.4549627 L57.2905799,20.555426 C57.1215916,20.4148734 57.0652622,20.2462103 57.1497563,20.0775471 L58.8678036,15.6360848 C58.8959683,15.5236427 58.6143212,14.7927692 58.5016624,14.4554429" id="Shape" fill="#FFFFFF"></path>
                    <path d="M52.0801086,11.1946225 L52.0801086,10.2950858 C51.6858027,10.2950858 51.2633321,10.2669753 50.8690261,10.2669753 C49.8550966,10.2669753 47.3202727,10.4356384 47.3202727,12.2066012 C47.3202727,13.274801 48.362367,13.865122 49.235473,13.865122 C51.0943438,13.865122 52.0801086,12.7125906 52.0801086,11.1946225 L52.0801086,11.1946225 Z M54.0234736,14.7365481 C54.0234736,14.9614323 53.8263206,15.1582059 53.6010029,15.1582059 L52.7278969,15.1582059 C52.4744146,15.1582059 52.2772616,14.9895428 52.2772616,14.7365481 L52.2772616,13.8370115 L52.2490969,13.8370115 C51.7984615,14.4554429 50.8126967,15.3830901 49.0664847,15.3830901 C46.8696374,15.3830901 45.3205783,14.4273324 45.3205783,12.2066012 C45.3205783,9.64854382 48.1370493,8.86144923 50.0804143,8.86144923 C50.8126967,8.86144923 51.3478262,8.86144923 52.0801086,8.88955975 C52.0801086,7.14670744 51.4323203,6.24717077 49.5452848,6.24717077 C48.7285082,6.24717077 47.8554022,6.47205494 47.1512845,6.89371275 C47.094955,6.92182327 47.0104609,6.94993379 46.9259668,6.94993379 C46.7006491,6.94993379 46.5316609,6.78127067 46.5034961,6.5563865 L46.4471667,5.82551295 C46.4471667,5.74118139 46.4753314,5.65684982 46.5598256,5.6287393 C47.489261,5.0946394 48.5595199,4.72920263 49.8269319,4.72920263 C52.7560617,4.72920263 53.9389795,6.1628392 53.9389795,8.94578079 L53.9389795,13.1623589 C53.9671442,13.8932325 53.9953089,14.3711114 54.0234736,14.7365481 L54.0234736,14.7365481 L54.0234736,14.7365481 Z" id="Shape" fill="#FFFFFF"></path>
                    <path d="M35.6037536,10.0139806 C35.5755889,11.6162803 36.4205301,13.865122 38.4483892,13.865122 C40.5889071,13.865122 41.4620131,11.7849434 41.4620131,10.0702016 C41.4620131,8.18679672 40.4762483,6.24717077 38.4202245,6.24717077 C36.3642007,6.24717077 35.5474241,8.1586862 35.6037536,10.0139806 M41.5183426,14.7084376 L41.5183426,13.6964588 L41.4901779,13.6964588 C40.9832131,14.4554429 39.82846,15.3830901 37.9977539,15.3830901 C34.8996358,15.3830901 33.6040592,12.6563696 33.6040592,9.87342798 C33.6040592,7.14670744 35.0404594,4.72920263 38.0259186,4.72920263 C39.8002953,4.72920263 40.8423895,5.43196566 41.4338484,6.35961285 L41.4620131,6.35961285 L41.4620131,0.596956032 C41.4620131,0.372071864 41.6310014,0.175298216 41.8563191,0.175298216 L42.926578,0.175298216 C43.1518957,0.175298216 43.3490487,0.343961343 43.3490487,0.596956032 L43.3490487,14.7084376 C43.3490487,14.9333218 43.1800604,15.1019849 42.9547427,15.1300954 L41.9408132,15.1300954 C41.7154955,15.1300954 41.5183426,14.9333218 41.5183426,14.7084376" id="Shape" fill="#FFFFFF"></path>
                    <path d="M10.9877974,14.7365481 C10.9877974,14.9614323 10.7906445,15.1582059 10.5653268,15.1582059 L9.382409,15.1582059 C9.15709133,15.1582059 8.98810307,14.9614323 8.98810307,14.7365481 L8.98810307,8.80522818 L2.2567375,8.80522818 L2.2567375,14.7365481 C2.2567375,14.9614323 2.08774924,15.1300954 1.86243156,15.1582059 L1.83426685,15.1582059 L0.707678474,15.1582059 C0.454196088,15.1582059 0.257043122,14.9614323 0.257043122,14.7365481 L0.257043122,14.7084376 L0.257043122,1.66515583 C0.257043122,1.41216114 0.454196088,1.24349802 0.679513764,1.24349802 L1.86243156,1.24349802 C2.08774924,1.24349802 2.28490221,1.44027166 2.28490221,1.63704531 L2.28490221,7.03426536 L8.98810307,7.03426536 L8.98810307,1.60893479 C8.98810307,1.38405062 9.18525604,1.2153875 9.41057371,1.2153875 L10.5653268,1.2153875 C10.8188092,1.2153875 11.0159622,1.41216114 11.0159622,1.63704531 L11.0159622,14.7365481 L10.9877974,14.7365481 Z" id="Shape" fill="#FFFFFF"></path>
                    <path d="M26.1404112,15.1300954 L26.1122465,15.1300954 C25.8869288,15.1300954 25.6897758,14.9333218 25.6897758,14.7084376 L25.6897758,0.596956032 C25.6897758,0.372071864 25.8869288,0.175298216 26.1122465,0.175298216 L26.1404112,0.175298216 L27.1825054,0.175298216 C27.4078231,0.175298216 27.6049761,0.372071864 27.6049761,0.596956032 L27.6049761,15.1300954 L26.1404112,15.1300954 L26.1404112,15.1300954 Z" id="Shape" fill="#FFFFFF"></path>
                    <path d="M30.4777764,15.1300954 L30.4496117,15.1300954 C30.224294,15.1300954 30.0271411,14.9333218 30.0271411,14.7084376 L30.0271411,5.37574461 C30.0271411,5.15086044 30.224294,4.9540868 30.4496117,4.9540868 L31.5198707,4.9540868 C31.7451884,4.9540868 31.9423413,5.15086044 31.9423413,5.37574461 L31.9423413,15.1300954 L30.4777764,15.1300954 L30.4777764,15.1300954 Z" id="Shape" fill="#FFFFFF"></path>
                    <path d="M32.0268355,0.568845511 L32.0268355,2.2835873 C32.0268355,2.50847146 31.8296825,2.67713459 31.6043648,2.67713459 L31.5762001,2.67713459 L29.8863175,2.67713459 L29.8863175,0.962392806 C29.8863175,0.737508638 30.0834705,0.54073499 30.3087882,0.54073499 L30.3369529,0.54073499 L32.0268355,0.54073499 L32.0268355,0.568845511 Z" id="Shape" fill="#FFFFFF"></path>
                    <path d="M15.296998,10.0702016 C15.296998,11.8973855 16.2827628,13.865122 18.5077749,13.865122 C20.7327869,13.865122 21.6903871,11.869275 21.6903871,10.0702016 C21.6903871,8.13057568 20.5074693,6.27528129 18.5077749,6.27528129 C16.4799158,6.24717077 15.296998,8.13057568 15.296998,10.0702016 M13.2973036,10.0702016 C13.2973036,6.97804431 15.3814921,4.75731315 18.5077749,4.75731315 C21.6340576,4.75731315 23.7182461,6.97804431 23.7182461,10.0702016 C23.7182461,12.9655853 21.5777282,15.3830901 18.5077749,15.3830901 C15.4096568,15.3830901 13.2973036,12.9655853 13.2973036,10.0702016" id="Shape" fill="#FFFFFF"></path>
                    <path d="M76.5552412,14.5959955 C76.5552412,14.7927692 76.4425824,14.9333218 76.3017588,14.9895428 C75.2878293,15.3268691 74.1330762,15.3830901 73.372629,15.3830901 C68.9226049,15.3830901 65.9934751,12.5439275 65.9934751,8.13057568 C65.9934751,3.85777648 69.1197579,0.990503327 73.4007937,0.990503327 C74.3865586,0.990503327 75.3441587,1.13105593 76.2454294,1.46838219 L76.2735941,1.46838219 C76.4144176,1.52460323 76.5270765,1.66515583 76.5270765,1.83381896 L76.4144176,3.18312397 C76.4144176,3.29556605 76.3017588,3.37989762 76.2172647,3.37989762 C76.1891,3.37989762 76.1609353,3.37989762 76.1327706,3.3517871 C75.315994,2.93012928 74.4147233,2.73335563 73.5134526,2.73335563 C70.274511,2.73335563 68.1339931,5.03841836 68.1339931,8.1586862 C68.1339931,11.4195066 70.4998286,13.6121273 73.4289584,13.6121273 C74.3020644,13.6121273 75.4568175,13.4153536 76.2172647,13.0780274 C76.2454294,13.0780274 76.2735941,13.0499169 76.3017588,13.0499169 C76.4144176,13.0499169 76.4989118,13.1342484 76.4989118,13.274801 L76.5552412,14.5959955 L76.5552412,14.5959955 Z" id="Shape" fill="#FFFFFF"></path>
                    <path d="M87.9337838,14.7084376 C87.9337838,14.9333218 87.7366309,15.1300954 87.5113132,15.1300954 L86.4410542,15.1300954 C86.2157366,15.1300954 86.0185836,14.9333218 86.0185836,14.7084376 L86.0185836,14.6803271 L86.0185836,9.87342798 C86.0185836,7.51214421 85.4834541,6.35961285 83.849901,6.24717077 C81.709383,6.24717077 80.7236182,7.96191255 80.7236182,10.4356384 L80.7236182,14.7365481 C80.7236182,14.9614323 80.5546299,15.1300954 80.3293123,15.1582059 L79.2590533,15.1582059 C79.0337356,15.1582059 78.8365827,14.9614323 78.8365827,14.7365481 L78.8365827,0.625066553 C78.8365827,0.372071864 79.0337356,0.175298216 79.2590533,0.175298216 L80.3293123,0.175298216 C80.5546299,0.175298216 80.7517829,0.372071864 80.7517829,0.596956032 L80.7517829,6.41583389 L80.7799476,6.41583389 C81.4559007,5.34763409 82.6388185,4.72920263 84.0752186,4.72920263 C86.7227013,4.72920263 87.9056191,6.35961285 87.9056191,9.08633339 L87.9056191,14.7084376 L87.9337838,14.7084376 Z" id="Shape" fill="#FFFFFF"></path>
                    <path d="M108.071551,14.6803271 C108.071551,14.9052113 107.930728,15.0457639 107.761739,15.1019849 C107.057622,15.3549796 106.325339,15.3830901 105.73388,15.3830901 C102.635762,15.3830901 100.523409,12.9655853 100.523409,10.0702016 C100.523409,6.97804431 102.607597,4.75731315 105.73388,4.75731315 C106.353504,4.75731315 107.113951,4.86975523 107.677245,5.03841836 C107.874398,5.0946394 107.987057,5.23519201 107.987057,5.43196566 L107.987057,5.46007618 L107.902563,6.41583389 C107.902563,6.52827598 107.818069,6.61260754 107.677245,6.61260754 L107.620916,6.61260754 C106.973127,6.38772337 106.353504,6.27528129 105.818374,6.27528129 C103.706021,6.27528129 102.523103,8.1586862 102.523103,10.0702016 C102.523103,11.8973855 103.508868,13.865122 105.931033,13.865122 C106.466163,13.865122 107.142116,13.7245694 107.677245,13.4434642 C107.70541,13.4153536 107.733575,13.4153536 107.789904,13.4153536 C107.902563,13.4153536 107.987057,13.4996852 107.987057,13.6121273 L108.071551,14.6803271 L108.071551,14.6803271 Z" id="Shape" fill="#FFFFFF"></path>
                    <path d="M116.43647,15.1300954 C116.295646,15.1300954 116.182987,15.0738744 116.098493,14.9895428 L111.648469,9.90153851 L111.648469,14.7084376 C111.648469,14.9333218 111.451316,15.1300954 111.225999,15.1300954 L111.197834,15.1300954 L110.212069,15.1300954 L110.183904,15.1300954 C109.958587,15.1300954 109.761434,14.9333218 109.761434,14.7084376 L109.761434,0.596956032 C109.761434,0.372071864 109.958587,0.175298216 110.183904,0.175298216 L111.225999,0.175298216 C111.479481,0.175298216 111.648469,0.372071864 111.648469,0.596956032 L111.648469,9.08633339 L115.619693,5.12274992 C115.704187,5.03841836 115.816846,4.98219732 115.929505,4.98219732 L117.816541,4.98219732 C117.929199,4.98219732 118.013694,5.06652888 118.013694,5.20708149 C118.013694,5.26330253 117.985529,5.31952357 117.957364,5.34763409 L113.563669,9.50799121 L118.576988,14.7927692 C118.633317,14.8208797 118.661482,14.8771007 118.661482,14.9614323 C118.661482,15.0738744 118.576988,15.1582059 118.464329,15.1582059 L116.43647,15.1300954 L116.43647,15.1300954 Z" id="Shape" fill="#FFFFFF"></path>
                    <path d="M91.9613373,9.08633339 L97.2563027,9.08633339 C97.2563027,7.54025474 96.3268673,6.24717077 94.6933141,6.24717077 C92.862608,6.24717077 92.1021608,7.7651389 91.9613373,9.08633339 L91.9613373,9.08633339 Z M98.4955499,14.4273324 C98.4955499,14.624106 98.3828911,14.7646586 98.2420675,14.8208797 C97.5661145,15.0738744 96.7493379,15.3830901 95.2566083,15.3830901 C91.6233608,15.3830901 89.9616429,13.1904695 89.9616429,9.87342798 C89.9616429,6.86560223 91.8768432,4.72920263 94.7778083,4.72920263 C98.101244,4.72920263 99.2559971,7.0904864 99.2841618,10.2669753 C99.2841618,10.3794174 99.1996676,10.4918594 99.0870088,10.4918594 L91.989502,10.4918594 C91.989502,12.515817 93.5667257,13.8932325 95.3692672,13.8932325 C96.4113614,13.8932325 97.5661145,13.4434642 98.2139028,13.0780274 C98.2420675,13.0499169 98.2702322,13.0499169 98.3265616,13.0499169 C98.4392205,13.0499169 98.5518793,13.1342484 98.5518793,13.2466905 L98.5518793,14.4273324 L98.4955499,14.4273324 Z" id="Shape" fill="#FFFFFF"></path>
                </g>
            </g>
        </g>
    </g>
</svg>